<svg width="74" height="116" viewBox="0 0 74 116" fill="none" xmlns="http://www.w3.org/2000/svg">
<g clip-path="url(#clip0_3_2)">
<g clip-path="url(#clip1_3_2)">
<path d="M22 30.2511H20.8421V34.5814H22C23.5053 34.5814 23.9105 33.4061 23.9105 32.3544C23.9105 31.1172 23.4474 30.2511 22 30.2511ZM22 30.2511H20.8421V34.5814H22C23.5053 34.5814 23.9105 33.4061 23.9105 32.3544C23.9105 31.1172 23.4474 30.2511 22 30.2511ZM22 30.2511H20.8421V34.5814H22C23.5053 34.5814 23.9105 33.4061 23.9105 32.3544C23.9105 31.1172 23.4474 30.2511 22 30.2511ZM22 30.2511H20.8421V34.5814H22C23.5053 34.5814 23.9105 33.4061 23.9105 32.3544C23.9105 31.1172 23.4474 30.2511 22 30.2511ZM64.0895 16.4558V20.7243H50.0789V16.4558H32.0737V20.7243H18.0053V16.4558H10.0158V48.5623C10.0158 50.913 11.8105 52.8307 14.0105 52.8307H68.0842C70.2842 52.8307 72.0789 50.913 72.0789 48.5623V16.4558H64.0895ZM28.1947 44.2938H24.2C23.9105 43.737 23.7947 42.8091 23.7947 40.8914C23.7947 37.9839 23.4474 37.3652 22.2316 37.3652H20.8421V44.2938H17.1368V27.4673H23.3316C26.5158 27.4673 27.5579 29.5706 27.5579 31.8595C27.5579 34.334 26.6316 35.5094 24.8947 35.9424V36.0043C27.2105 36.3754 27.3842 37.922 27.4421 40.2109C27.5 43.5514 27.6158 43.8607 28.1368 44.1082V44.2938H28.1947ZM38.5579 44.2938H29.1789V27.4673H38.2684V30.6841H32.8842V34.0247H37.9789V37.2415H32.8842V41.077H38.5579V44.2938ZM51.9895 44.2938H47.8211L44.5789 32.7256H44.5211V44.2938H41.2211V27.4673H45.5053L48.5158 38.4169H48.5737V27.4673H51.9895V44.2938ZM64.4947 30.6841H61.1947V44.2938H57.4895V30.6841H54.1895V27.4673H64.4947V30.6841ZM22 30.2511H20.8421V34.5814H22C23.5053 34.5814 23.9105 33.4061 23.9105 32.3544C23.9105 31.1172 23.4474 30.2511 22 30.2511ZM22 30.2511H20.8421V34.5814H22C23.5053 34.5814 23.9105 33.4061 23.9105 32.3544C23.9105 31.1172 23.4474 30.2511 22 30.2511ZM22 30.2511H20.8421V34.5814H22C23.5053 34.5814 23.9105 33.4061 23.9105 32.3544C23.9105 31.1172 23.4474 30.2511 22 30.2511ZM62.0632 7.91887V5.7537H52.0474V7.91887H30.0474V5.7537H20.0316V7.91887H6.02105V6.86722C6.02105 5.07322 4.68947 3.65039 3.01053 3.65039C1.33158 3.65039 0 5.07322 0 6.86722V63.5948H6.02105V14.3525H20.0316V18.621H30.0474V14.3525H52.1053V18.621H62.1211V14.3525H74.1053V7.91887H62.0632Z" fill="#AB62D3"/>
</g>
<path d="M23.2158 93.9317C22.579 93.1893 21.4789 93.1893 20.7842 93.8698L18.2947 96.4061C17.6 97.0866 17.6 98.262 18.2368 99.0043C18.8737 99.7467 19.9737 99.7467 20.6684 99.0662L23.1579 96.5299C23.8526 95.8494 23.8526 94.674 23.2158 93.9317ZM28.021 96.7155C27.3842 95.9731 26.2842 95.9731 25.5895 96.6536L21.8263 100.427C21.1316 101.108 21.1316 102.283 21.7684 103.025C22.4053 103.768 23.5053 103.768 24.2 103.087L27.9632 99.3137C28.6 98.5713 28.6579 97.4578 28.021 96.7155ZM35.0842 104.696C34.4474 103.953 33.3474 103.953 32.6526 104.634L30.1632 107.17C29.4684 107.851 29.4684 109.026 30.1053 109.768C30.7421 110.511 31.8421 110.511 32.5368 109.83L35.0263 107.294C35.6632 106.552 35.7211 105.438 35.0842 104.696ZM17.7737 57L0 78.5899L8.04736 85.9515L25.8211 64.3616L17.7737 57ZM7.87369 80.4457C6.48421 80.5694 5.21053 79.4559 5.09474 77.9094C4.97895 76.4247 6.02105 75.0637 7.46842 74.94C8.85789 74.8163 10.1316 75.9298 10.2474 77.4764C10.3632 78.961 9.32106 80.322 7.87369 80.4457ZM35.5474 81.8067C35.5474 81.8067 27.5 83.1677 22.5789 81.0643C18.9895 79.4559 23.6789 72.5892 30.5684 73.0223C29.1789 71.8469 24.1421 68.6919 24.1421 68.6919L11.8684 84.0337L19.8 90.4674L20.6105 93.1275C20.6105 93.1275 22.4632 91.8902 23.9684 93.3749C25.4737 94.7977 24.4316 96.5917 23.9105 97.3341C25.0105 96.1587 27.2684 94.4266 28.6 95.6019C31.5526 98.2001 26.1105 101.85 26.5158 102.283C27.0368 102.84 30.0474 96.901 32.5368 100.427C33.4053 101.664 32.0737 103.768 31.1474 104.943C32.3053 103.706 33.8684 102.283 35.6632 104.139C37.1105 105.685 34.6789 108.717 34.6789 108.717C34.6789 108.717 37.4579 109.768 38.7316 108.407C40.2947 106.675 33.521 100.056 33.521 100.056L34.2158 99.8086C34.2158 99.8086 40.7579 109.645 43.4211 106.799C45.7947 104.263 36.8211 97.2722 36.8211 97.2722L37.6316 96.4061C37.6316 96.4061 46.1421 105.995 48.2842 102.716C50.021 100.118 40.7579 93.5605 40.7579 93.5605L41.6263 92.7563C41.6263 92.7563 49.6158 99.623 51.2368 96.9629C53.7263 92.88 35.5474 81.8067 35.5474 81.8067ZM39.1947 75.2493C39.1947 75.2493 27.5579 72.8986 23.5632 77.8475C19.8 82.4872 37.8632 80.0127 37.1105 80.6313C38.9053 82.7346 51.7 92.447 51.7 92.447L62.1789 84.5286L51.5263 67.9496L39.1947 75.2493ZM23.3316 98.0146C23.3316 98.0146 23.621 97.7671 23.9684 97.3341C23.5632 97.7671 23.3316 98.0146 23.3316 98.0146ZM58.7632 57.3712L50.4263 63.6192L65.7684 86.6319L74.1053 80.3839L58.7632 57.3712ZM66.4053 81.0643C65.0158 81.1881 63.7421 80.0746 63.6263 78.528C63.5105 77.0433 64.5526 75.6823 66 75.5586C67.3895 75.4349 68.6632 76.5484 68.7789 78.095C68.8947 79.6415 67.7947 80.9406 66.4053 81.0643ZM31.1474 104.943C30.6842 105.438 30.3947 105.871 30.3947 105.871C30.3947 105.871 30.7421 105.5 31.1474 104.943ZM31.5526 100.675C30.9158 99.9323 29.8158 99.9323 29.1211 100.613L25.3579 104.386C24.6632 105.067 24.6632 106.242 25.3 106.985C25.9368 107.727 27.0368 107.727 27.7316 107.046L31.4947 103.273C32.1316 102.592 32.1895 101.417 31.5526 100.675Z" fill="#D5841F"/>
</g>
<defs>
<clipPath id="clip0_3_2">
<rect width="74" height="116" fill="white"/>
</clipPath>
<clipPath id="clip1_3_2">
<rect width="74.1053" height="79.1835" fill="white" transform="translate(0 -6)"/>
</clipPath>
</defs>
</svg>
