<svg width="24" height="24" viewBox="0 0 24 24" fill="none" xmlns="http://www.w3.org/2000/svg">
<path d="M6.80418 6.74906C8.33438 5.74558 10.1075 5.00001 12 5.00001C16.3004 5.00001 19.9844 8.85002 21.6029 10.8275C21.8584 11.1491 21.9999 11.5669 21.9999 12C21.9999 12.4332 21.8584 12.851 21.6029 13.1725C20.7107 14.2626 19.1909 15.9216 17.2864 17.1911M14.312 18.6416C13.5685 18.8686 12.7948 19 12 19C7.69947 19 4.01554 15.15 2.39707 13.1725C2.14144 12.851 1.99995 12.4332 1.99995 12C1.99995 11.5669 2.14144 11.1491 2.39707 10.8275C2.90985 10.201 3.62996 9.38649 4.51133 8.56604M14.1753 14.1757C15.3769 12.9741 15.3769 11.0259 14.1753 9.82428C12.9737 8.62268 11.0255 8.62268 9.82389 9.82428M20.6766 20.6766L3.5 3.5" stroke="#333333" stroke-width="1.5" stroke-linecap="round" stroke-linejoin="round"/>
</svg>
