<svg width="24" height="24" viewBox="0 0 24 24" fill="none" xmlns="http://www.w3.org/2000/svg">
<path d="M19.5 10.3636C19.5 14.0434 15.2859 18.183 13.1753 20.0254C12.496 20.6184 11.504 20.6184 10.8247 20.0254C8.71412 18.183 4.5 14.0434 4.5 10.3636C4.5 6.35291 7.915 3 12 3C16.085 3 19.5 6.35291 19.5 10.3636Z" stroke="#333333" stroke-width="1.5" stroke-linejoin="round"/>
<path d="M12.0001 12.8181C13.3808 12.8181 14.5001 11.7192 14.5001 10.3636C14.5001 9.00799 13.3808 7.90906 12.0001 7.90906C10.6194 7.90906 9.50009 9.00799 9.50009 10.3636C9.50009 11.7192 10.6194 12.8181 12.0001 12.8181Z" stroke="#333333" stroke-width="1.5" stroke-linejoin="round"/>
</svg>
