<svg width="24" height="24" viewBox="0 0 24 24" fill="none" xmlns="http://www.w3.org/2000/svg">
<path d="M14.5003 11.2821H20.5003M20.5003 11.2821L18.5001 13.2308M20.5003 11.2821L18.5001 9.33337M11.5007 19.0769H14.5012C15.6058 19.0769 16.5007 18.1815 16.5007 17.0769V16.1538M16.4997 6.41026V5.48718C16.4997 4.38261 15.6076 3.48718 14.503 3.48718H4.49969M4.10786 18.8489L8.71572 20.8131C10.035 21.3755 11.5 20.4075 11.5 18.9733V8.39261C11.5 7.19042 10.7823 6.10432 9.67642 5.6329L4.89214 3.59344C4.23249 3.31225 3.5 3.79627 3.5 4.51335V17.929C3.5 18.3297 3.73923 18.6917 4.10786 18.8489Z" stroke="#333333" stroke-width="1.5" stroke-linecap="round" stroke-linejoin="round"/>
</svg>
