<svg width="260" height="116" viewBox="0 0 260 116" fill="none" xmlns="http://www.w3.org/2000/svg">
<g clip-path="url(#clip0_3_2)">
<g clip-path="url(#clip1_3_2)">
<path d="M42 35.2511H40.8421V39.5814H42C43.5053 39.5814 43.9105 38.4061 43.9105 37.3544C43.9105 36.1172 43.4474 35.2511 42 35.2511ZM42 35.2511H40.8421V39.5814H42C43.5053 39.5814 43.9105 38.4061 43.9105 37.3544C43.9105 36.1172 43.4474 35.2511 42 35.2511ZM42 35.2511H40.8421V39.5814H42C43.5053 39.5814 43.9105 38.4061 43.9105 37.3544C43.9105 36.1172 43.4474 35.2511 42 35.2511ZM42 35.2511H40.8421V39.5814H42C43.5053 39.5814 43.9105 38.4061 43.9105 37.3544C43.9105 36.1172 43.4474 35.2511 42 35.2511ZM84.0895 21.4558V25.7243H70.0789V21.4558H52.0737V25.7243H38.0053V21.4558H30.0158V53.5623C30.0158 55.913 31.8105 57.8307 34.0105 57.8307H88.0842C90.2842 57.8307 92.0789 55.913 92.0789 53.5623V21.4558H84.0895ZM48.1947 49.2938H44.2C43.9105 48.737 43.7947 47.8091 43.7947 45.8914C43.7947 42.9839 43.4474 42.3652 42.2316 42.3652H40.8421V49.2938H37.1368V32.4673H43.3316C46.5158 32.4673 47.5579 34.5706 47.5579 36.8595C47.5579 39.334 46.6316 40.5094 44.8947 40.9424V41.0043C47.2105 41.3754 47.3842 42.922 47.4421 45.2109C47.5 48.5514 47.6158 48.8607 48.1368 49.1082V49.2938H48.1947ZM58.5579 49.2938H49.1789V32.4673H58.2684V35.6841H52.8842V39.0247H57.9789V42.2415H52.8842V46.077H58.5579V49.2938ZM71.9895 49.2938H67.8211L64.5789 37.7256H64.5211V49.2938H61.2211V32.4673H65.5053L68.5158 43.4169H68.5737V32.4673H71.9895V49.2938ZM84.4947 35.6841H81.1947V49.2938H77.4895V35.6841H74.1895V32.4673H84.4947V35.6841ZM42 35.2511H40.8421V39.5814H42C43.5053 39.5814 43.9105 38.4061 43.9105 37.3544C43.9105 36.1172 43.4474 35.2511 42 35.2511ZM42 35.2511H40.8421V39.5814H42C43.5053 39.5814 43.9105 38.4061 43.9105 37.3544C43.9105 36.1172 43.4474 35.2511 42 35.2511ZM42 35.2511H40.8421V39.5814H42C43.5053 39.5814 43.9105 38.4061 43.9105 37.3544C43.9105 36.1172 43.4474 35.2511 42 35.2511ZM82.0632 12.9189V10.7537H72.0474V12.9189H50.0474V10.7537H40.0316V12.9189H26.0211V11.8672C26.0211 10.0732 24.6895 8.65039 23.0105 8.65039C21.3316 8.65039 20 10.0732 20 11.8672V68.5948H26.0211V19.3525H40.0316V23.621H50.0474V19.3525H72.1053V23.621H82.1211V19.3525H94.1053V12.9189H82.0632Z" fill="#905AC9"/>
</g>
<path d="M43.2158 98.9317C42.579 98.1893 41.4789 98.1893 40.7842 98.8698L38.2947 101.406C37.6 102.087 37.6 103.262 38.2368 104.004C38.8737 104.747 39.9737 104.747 40.6684 104.066L43.1579 101.53C43.8526 100.849 43.8526 99.674 43.2158 98.9317ZM48.021 101.715C47.3842 100.973 46.2842 100.973 45.5895 101.654L41.8263 105.427C41.1316 106.108 41.1316 107.283 41.7684 108.025C42.4053 108.768 43.5053 108.768 44.2 108.087L47.9632 104.314C48.6 103.571 48.6579 102.458 48.021 101.715ZM55.0842 109.696C54.4474 108.953 53.3474 108.953 52.6526 109.634L50.1632 112.17C49.4684 112.851 49.4684 114.026 50.1053 114.768C50.7421 115.511 51.8421 115.511 52.5368 114.83L55.0263 112.294C55.6632 111.552 55.7211 110.438 55.0842 109.696ZM37.7737 62L20 83.5899L28.0474 90.9515L45.8211 69.3616L37.7737 62ZM27.8737 85.4457C26.4842 85.5694 25.2105 84.4559 25.0947 82.9094C24.9789 81.4247 26.021 80.0637 27.4684 79.94C28.8579 79.8163 30.1316 80.9298 30.2474 82.4764C30.3632 83.961 29.3211 85.322 27.8737 85.4457ZM55.5474 86.8067C55.5474 86.8067 47.5 88.1677 42.5789 86.0643C38.9895 84.4559 43.6789 77.5892 50.5684 78.0223C49.1789 76.8469 44.1421 73.6919 44.1421 73.6919L31.8684 89.0337L39.8 95.4674L40.6105 98.1275C40.6105 98.1275 42.4632 96.8902 43.9684 98.3749C45.4737 99.7977 44.4316 101.592 43.9105 102.334C45.0105 101.159 47.2684 99.4266 48.6 100.602C51.5526 103.2 46.1105 106.85 46.5158 107.283C47.0368 107.84 50.0474 101.901 52.5368 105.427C53.4053 106.664 52.0737 108.768 51.1474 109.943C52.3053 108.706 53.8684 107.283 55.6632 109.139C57.1105 110.685 54.6789 113.717 54.6789 113.717C54.6789 113.717 57.4579 114.768 58.7316 113.407C60.2947 111.675 53.521 105.056 53.521 105.056L54.2158 104.809C54.2158 104.809 60.7579 114.645 63.4211 111.799C65.7947 109.263 56.8211 102.272 56.8211 102.272L57.6316 101.406C57.6316 101.406 66.1421 110.995 68.2842 107.716C70.021 105.118 60.7579 98.5605 60.7579 98.5605L61.6263 97.7563C61.6263 97.7563 69.6158 104.623 71.2368 101.963C73.7263 97.88 55.5474 86.8067 55.5474 86.8067ZM59.1947 80.2493C59.1947 80.2493 47.5579 77.8986 43.5632 82.8475C39.8 87.4872 57.8632 85.0127 57.1105 85.6313C58.9053 87.7346 71.7 97.447 71.7 97.447L82.1789 89.5286L71.5263 72.9496L59.1947 80.2493ZM43.3316 103.015C43.3316 103.015 43.621 102.767 43.9684 102.334C43.5632 102.767 43.3316 103.015 43.3316 103.015ZM78.7632 62.3712L70.4263 68.6192L85.7684 91.6319L94.1053 85.3839L78.7632 62.3712ZM86.4053 86.0643C85.0158 86.1881 83.7421 85.0746 83.6263 83.528C83.5105 82.0433 84.5526 80.6823 86 80.5586C87.3895 80.4349 88.6632 81.5484 88.7789 83.095C88.8947 84.6415 87.7947 85.9406 86.4053 86.0643ZM51.1474 109.943C50.6842 110.438 50.3947 110.871 50.3947 110.871C50.3947 110.871 50.7421 110.5 51.1474 109.943ZM51.5526 105.675C50.9158 104.932 49.8158 104.932 49.1211 105.613L45.3579 109.386C44.6632 110.067 44.6632 111.242 45.3 111.985C45.9368 112.727 47.0368 112.727 47.7316 112.046L51.4947 108.273C52.1316 107.592 52.1895 106.417 51.5526 105.675Z" fill="#DE934B"/>
<path d="M106.307 40L110.17 16.7273H119.784C121.527 16.7273 122.981 17.0417 124.148 17.6705C125.314 18.2917 126.144 19.1856 126.636 20.3523C127.129 21.5114 127.242 22.8864 126.977 24.4773C126.72 26.0833 126.144 27.4508 125.25 28.5795C124.364 29.7008 123.22 30.5568 121.818 31.1477C120.424 31.7386 118.841 32.0341 117.068 32.0341H110.989L111.739 27.6023H116.773C117.614 27.6023 118.341 27.4924 118.955 27.2727C119.568 27.0455 120.057 26.7045 120.42 26.25C120.792 25.7879 121.038 25.197 121.159 24.4773C121.273 23.7576 121.22 23.1629 121 22.6932C120.788 22.2159 120.413 21.8598 119.875 21.625C119.345 21.3826 118.663 21.2614 117.83 21.2614H115.057L111.932 40H106.307ZM121.17 29.3636L125.205 40H119.068L115.159 29.3636H121.17ZM127.744 40L131.608 16.7273H147.835L147.062 21.2955H136.46L135.688 26.0682H145.46L144.688 30.6477H134.915L134.142 35.4318H144.744L143.972 40H127.744ZM171.165 16.7273L167.301 40H162.528L155.517 26.5682H155.358L153.119 40H147.494L151.358 16.7273H156.199L163.153 30.1364H163.347L165.551 16.7273H171.165ZM173.168 21.2955L173.94 16.7273H193.611L192.838 21.2955H185.781L182.69 40H177.145L180.236 21.2955H173.168ZM194.622 40H188.577L200.293 16.7273H207.781L211.77 40H205.724L203.168 22.5909H202.986L194.622 40ZM195.349 30.8409H207.986L207.259 35.1136H194.622L195.349 30.8409ZM214.276 40L218.139 16.7273H223.764L220.673 35.4318H230.355L229.582 40H214.276ZM121.568 62.75C121.629 61.8939 121.402 61.2311 120.886 60.7614C120.379 60.2917 119.576 60.0568 118.477 60.0568C117.75 60.0568 117.129 60.1515 116.614 60.3409C116.098 60.5227 115.693 60.7803 115.398 61.1136C115.102 61.4394 114.917 61.8182 114.841 62.25C114.773 62.5909 114.792 62.8939 114.898 63.1591C115.004 63.4242 115.189 63.6591 115.455 63.8636C115.727 64.0682 116.064 64.2462 116.466 64.3977C116.875 64.5492 117.333 64.6818 117.841 64.7955L119.75 65.25C120.856 65.5 121.814 65.8333 122.625 66.25C123.443 66.6591 124.106 67.1553 124.614 67.7386C125.121 68.3144 125.47 68.9773 125.659 69.7273C125.848 70.4773 125.864 71.3182 125.705 72.25C125.462 73.7197 124.883 74.9811 123.966 76.0341C123.057 77.0871 121.867 77.8939 120.398 78.4545C118.936 79.0152 117.235 79.2955 115.295 79.2955C113.356 79.2955 111.708 79.0038 110.352 78.4205C109.004 77.8295 108.027 76.9394 107.42 75.75C106.814 74.5606 106.652 73.0606 106.932 71.25H112.307C112.223 72 112.318 72.625 112.591 73.125C112.871 73.625 113.303 74.0038 113.886 74.2614C114.47 74.5189 115.174 74.6477 116 74.6477C116.758 74.6477 117.42 74.5455 117.989 74.3409C118.564 74.1364 119.023 73.8523 119.364 73.4886C119.712 73.125 119.924 72.7083 120 72.2386C120.076 71.8068 120.004 71.4318 119.784 71.1136C119.572 70.7955 119.208 70.5189 118.693 70.2841C118.186 70.0492 117.519 69.8371 116.693 69.6477L114.364 69.0795C112.439 68.6098 110.981 67.8598 109.989 66.8295C109.004 65.7992 108.655 64.4015 108.943 62.6364C109.186 61.1894 109.784 59.9242 110.739 58.8409C111.701 57.7576 112.917 56.9167 114.386 56.3182C115.864 55.7121 117.489 55.4091 119.261 55.4091C121.064 55.4091 122.58 55.7159 123.807 56.3295C125.042 56.9356 125.932 57.7917 126.477 58.8977C127.03 59.9962 127.189 61.2803 126.955 62.75H121.568ZM127.432 79L131.295 55.7273H140.909C142.652 55.7273 144.102 56.0644 145.261 56.7386C146.42 57.4129 147.242 58.3561 147.727 59.5682C148.212 60.7803 148.322 62.1856 148.057 63.7841C147.799 65.3977 147.22 66.803 146.318 68C145.424 69.197 144.273 70.125 142.864 70.7841C141.455 71.4432 139.852 71.7727 138.057 71.7727H132.136L132.875 67.3409H137.761C138.617 67.3409 139.356 67.1932 139.977 66.8977C140.606 66.6023 141.11 66.1894 141.489 65.6591C141.867 65.1288 142.117 64.5038 142.239 63.7841C142.352 63.0644 142.307 62.4432 142.102 61.9205C141.898 61.3902 141.53 60.9811 141 60.6932C140.477 60.4053 139.795 60.2614 138.955 60.2614H136.182L133.057 79H127.432ZM150.497 79H144.452L156.168 55.7273H163.656L167.645 79H161.599L159.043 61.5909H158.861L150.497 79ZM151.224 69.8409H163.861L163.134 74.1136H150.497L151.224 69.8409ZM192.625 64.1591H187.011C187.042 63.5682 186.985 63.0417 186.841 62.5795C186.697 62.1098 186.47 61.7083 186.159 61.375C185.848 61.0341 185.462 60.7765 185 60.6023C184.538 60.428 184 60.3409 183.386 60.3409C182.212 60.3409 181.148 60.6326 180.193 61.2159C179.239 61.7992 178.439 62.6402 177.795 63.7386C177.152 64.8371 176.701 66.1553 176.443 67.6932C176.208 69.178 176.212 70.4167 176.455 71.4091C176.705 72.4015 177.167 73.1477 177.841 73.6477C178.515 74.1402 179.371 74.3864 180.409 74.3864C181.083 74.3864 181.708 74.3068 182.284 74.1477C182.867 73.9811 183.394 73.7424 183.864 73.4318C184.333 73.1212 184.739 72.7462 185.08 72.3068C185.428 71.8598 185.697 71.3636 185.886 70.8182H191.545C191.265 71.8409 190.803 72.8598 190.159 73.875C189.523 74.8826 188.72 75.7955 187.75 76.6136C186.78 77.4318 185.655 78.0871 184.375 78.5795C183.095 79.072 181.67 79.3182 180.102 79.3182C177.958 79.3182 176.11 78.8371 174.557 77.875C173.011 76.9129 171.894 75.5189 171.205 73.6932C170.523 71.8598 170.394 69.6402 170.818 67.0341C171.235 64.5114 172.057 62.3864 173.284 60.6591C174.519 58.9318 176.019 57.625 177.784 56.7386C179.557 55.8523 181.447 55.4091 183.455 55.4091C184.909 55.4091 186.216 55.6061 187.375 56C188.542 56.3864 189.53 56.9545 190.341 57.7045C191.152 58.447 191.754 59.3598 192.148 60.4432C192.549 61.5265 192.708 62.7652 192.625 64.1591ZM193.401 79L197.264 55.7273H213.491L212.719 60.2955H202.116L201.344 65.0682H211.116L210.344 69.6477H200.571L199.798 74.4318H210.401L209.628 79H193.401Z" fill="url(#paint0_linear_3_2)"/>
</g>
<defs>
<linearGradient id="paint0_linear_3_2" x1="111" y1="40" x2="225" y2="74" gradientUnits="userSpaceOnUse">
<stop stop-color="#905AC9"/>
<stop offset="0.985" stop-color="#DE934B"/>
</linearGradient>
<clipPath id="clip0_3_2">
<rect width="260" height="116" fill="white"/>
</clipPath>
<clipPath id="clip1_3_2">
<rect width="74.1053" height="79.1835" fill="white" transform="translate(20 -1)"/>
</clipPath>
</defs>
</svg>
